Coordinates
version=1
nRows=9
nColumns=63
inDegrees=yes

Units are S.I. units (second, meters, Newtons, ...)
If the header above contains a line with 'inDegrees', this indicates whether rotational values are in degrees (yes) or radians (no).

endheader
time	pelvis_tilt	pelvis_list	pelvis_rotation	pelvis_tx	pelvis_ty	pelvis_tz	hip_flexion_r	hip_adduction_r	hip_rotation_r	knee_angle_r	knee_angle_r_beta	ankle_angle_r	subtalar_angle_r	mtp_angle_r	hip_flexion_l	hip_adduction_l	hip_rotation_l	knee_angle_l	knee_angle_l_beta	ankle_angle_l	subtalar_angle_l	mtp_angle_l	L5_S1_Flex_Ext	L5_S1_Lat_Bending	L5_S1_axial_rotation	L4_L5_Flex_Ext	L4_L5_Lat_Bending	L4_L5_axial_rotation	L3_L4_Flex_Ext	L3_L4_Lat_Bending	L3_L4_axial_rotation	L2_L3_Flex_Ext	L2_L3_Lat_Bending	L2_L3_axial_rotation	L1_L2_Flex_Ext	L1_L2_Lat_Bending	L1_L2_axial_rotation	L1_T12_Flex_Ext	L1_T12_Lat_Bending	L1_T12_axial_rotation	Abs_r3	Abs_r2	Abs_r1	Abs_t1	Abs_t2	neck_flexion	neck_bending	neck_rotation	arm_flex_r	arm_add_r	arm_rot_r	elbow_flex_r	pro_sup_r	wrist_flex_r	wrist_dev_r	arm_flex_l	arm_add_l	arm_rot_l	elbow_flex_l	pro_sup_l	wrist_flex_l	wrist_dev_l
1.898305	-0.720151	-5.298254	97.745423	0.217603	1.007722	0.452159	1.364206	-1.455157	-20.395532	7.244058	0.126433	17.662741	16.330449	0.000000	0.863328	1.537152	-7.994768	1.945651	0.033958	18.883219	9.428556	0.000000	0.040109	-0.102522	0.275091	0.074486	-0.136354	0.292284	0.065895	-0.249272	0.292284	0.045840	-0.249272	0.240704	0.037245	-0.209063	0.223511	0.022918	-0.158807	0.206318	0.286494	-1.159751	1.529971	0.000000	0.000000	24.113604	1.900343	-0.304465	17.292274	-8.049799	70.090888	45.791587	89.027048	20.985998	20.525089	19.212675	-9.900132	67.258121	50.191100	82.856448	19.136718	26.688238
1.915254	-0.770175	-5.255210	97.577795	0.217897	1.007798	0.451894	1.261339	-1.466412	-20.011896	7.098431	0.123891	17.719943	16.145869	0.000000	0.773568	1.578704	-8.239643	1.876963	0.032759	19.142364	9.701467	0.000000	0.042849	-0.106111	0.304673	0.079575	-0.141128	0.323715	0.070397	-0.257999	0.323715	0.048972	-0.257999	0.266589	0.039790	-0.216382	0.247547	0.024484	-0.164366	0.228505	0.306067	-1.200351	1.694499	0.000000	0.000000	23.985094	1.961605	-0.348285	17.506460	-7.973213	71.031205	45.617249	89.041504	20.397953	19.997829	19.248411	-9.927349	67.437968	50.141245	83.036602	19.054236	26.512391
1.932203	-0.820940	-5.220070	97.404326	0.218224	1.007860	0.451537	1.152532	-1.478415	-19.621005	6.935604	0.121049	17.812899	15.988330	0.000000	0.676574	1.621938	-8.416014	1.784314	0.031142	19.398881	9.869262	0.000000	0.048268	-0.109598	0.329335	0.089638	-0.145765	0.349918	0.079299	-0.266475	0.349918	0.055165	-0.266475	0.288168	0.044821	-0.223491	0.267585	0.027580	-0.169767	0.247001	0.344772	-1.239789	1.831661	0.000000	0.000000	23.856703	2.006997	-0.363950	17.630266	-7.845351	71.792003	45.406118	89.058365	19.932167	19.626423	19.205017	-9.965400	67.450066	50.086079	83.375923	19.071855	26.290574
1.949153	-0.876083	-5.181565	97.183258	0.218649	1.007937	0.451120	1.034717	-1.488117	-19.125938	6.763360	0.118043	17.919817	15.762226	0.000000	0.565500	1.664877	-8.665423	1.683295	0.029379	19.641734	10.049398	0.000000	0.053980	-0.113319	0.360535	0.100246	-0.150715	0.383069	0.088683	-0.275525	0.383069	0.061693	-0.275525	0.315468	0.050126	-0.231081	0.292935	0.030844	-0.175532	0.270401	0.385571	-1.281891	2.005189	0.000000	0.000000	23.731516	2.032150	-0.365975	17.705218	-7.687030	72.468147	45.164698	89.079865	19.528035	19.318280	19.166053	-10.021033	67.512355	50.027059	83.696800	19.022288	26.003153
1.966102	-0.928675	-5.143669	96.948039	0.219115	1.008027	0.450671	0.909239	-1.493204	-18.617164	6.585368	0.114936	18.022629	15.529626	0.000000	0.452838	1.701544	-8.972548	1.582923	0.027627	19.855822	10.255722	0.000000	0.060053	-0.116390	0.393830	0.111524	-0.154798	0.418444	0.098661	-0.282990	0.418444	0.068634	-0.282990	0.344601	0.055765	-0.237342	0.319987	0.034314	-0.180287	0.295372	0.428951	-1.316622	2.190364	0.000000	0.000000	23.610894	2.024070	-0.359385	17.713267	-7.501258	72.956114	44.905557	89.103277	19.295914	19.193950	19.115758	-10.074944	67.554627	49.941882	84.002898	18.998677	25.652627
1.983051	-0.975930	-5.108100	96.703877	0.219605	1.008126	0.450219	0.783753	-1.493790	-18.114917	6.414114	0.111947	18.116288	15.294503	0.000000	0.344350	1.730584	-9.318872	1.487699	0.025965	20.027212	10.465873	0.000000	0.066180	-0.118640	0.429846	0.122902	-0.157791	0.456711	0.108727	-0.288461	0.456711	0.075637	-0.288461	0.376115	0.061454	-0.241930	0.349250	0.037815	-0.183773	0.322384	0.472714	-1.342078	2.390672	0.000000	0.000000	23.498584	1.974592	-0.357896	17.658779	-7.304773	73.247866	44.652084	89.128075	19.232562	19.252811	19.062980	-10.123764	67.586068	49.841554	84.294439	18.994966	25.275879
2.000000	-1.018980	-5.066526	96.469716	0.220097	1.008248	0.449794	0.648129	-1.485927	-17.606698	6.246561	0.109023	18.189229	15.016483	0.000000	0.234598	1.752701	-9.650048	1.401674	0.024464	20.144664	10.631349	0.000000	0.070408	-0.120437	0.466479	0.130755	-0.160181	0.495634	0.115673	-0.292831	0.495634	0.080469	-0.292831	0.408169	0.065381	-0.245595	0.379014	0.040231	-0.186557	0.349859	0.502917	-1.362408	2.594418	0.000000	0.000000	23.386948	1.903053	-0.358906	17.562480	-7.113841	73.389202	44.418288	89.156082	19.254390	19.419046	19.045733	-10.171515	67.695250	49.704597	84.422253	18.971720	24.808093
2.016949	-1.049708	-5.036913	96.272297	0.220525	1.008362	0.449437	0.535133	-1.477979	-17.233829	6.114410	0.106717	18.260994	14.845564	0.000000	0.147890	1.766658	-9.878506	1.328234	0.023182	20.204476	10.679473	0.000000	0.074866	-0.120782	0.496102	0.139033	-0.160640	0.527108	0.122997	-0.293669	0.527108	0.085564	-0.293669	0.434089	0.069520	-0.246298	0.403083	0.042778	-0.187091	0.372077	0.534758	-1.366307	2.759171	0.000000	0.000000	23.287174	1.814023	-0.324577	17.439614	-6.928231	73.387276	44.207901	89.179819	19.408238	19.755815	19.009556	-10.207277	67.729115	49.567678	84.610018	18.981038	24.374339
2.033898	-1.070883	-5.009336	96.115065	0.220889	1.008483	0.449166	0.435566	-1.463322	-16.909240	6.010718	0.104907	18.318871	14.668709	0.000000	0.077532	1.772200	-10.042429	1.277682	0.022300	20.228290	10.665966	0.000000	0.077233	-0.120706	0.521458	0.143430	-0.160539	0.554049	0.126886	-0.293484	0.554049	0.088270	-0.293484	0.456276	0.071719	-0.246143	0.423685	0.044131	-0.186973	0.391093	0.551668	-1.365447	2.900192	0.000000	0.000000	23.209093	1.725243	-0.296242	17.277930	-6.766730	73.206136	44.040365	89.204372	19.600609	20.164705	19.007028	-10.235364	67.819248	49.413751	84.634790	18.945014	23.954319
